/* XPM */
static char *dummy[]={
"16 16 84 2",
".b c None",
"#p c #000000",
"#q c #000000",
"#r c #000000",
"Qt c #555555",
".# c #555555",
".c c #535353",
".E c #030303",
".a c #555555",
".F c #555555",
".q c #515151",
".J c #525252",
".O c #4f4f4f",
".T c #4b4b4b",
".Y c #474747",
".4 c #434343",
".8 c #3e3e3e",
"#b c #393939",
"#n c #3049ac",
".p c #b8b8c4",
".d c #c6c6c6",
"#f c #2244ab",
"#g c #2547b3",
"#a c #284aae",
"#h c #2d4fc4",
".7 c #3557bb",
"#k c #3759d6",
"#o c #4062e6",
".2 c #4769cd",
".W c #5e7ee0",
".1 c #718bd6",
".R c #8da5ef",
".D c #9c9c9c",
".C c #9e9e9e",
".B c #a1a1a1",
"#e c #a2aed2",
".A c #a4a4a4",
".z c #a6a6a6",
"## c #a8b3d6",
".y c #aaaaaa",
".x c #acacac",
".6 c #afbbde",
".w c #b0b0b0",
"#j c #b0bee7",
".v c #b2b2b2",
"#m c #b4c1ea",
".u c #b5b5b5",
"#i c #b5c2eb",
"#l c #b6c3ec",
".3 c #b6c4ed",
".t c #b8b8b8",
".s c #b9b9b9",
".X c #b9c6ee",
".r c #bbbbbb",
".M c #bdccf7",
".k c #c5c5c6",
".l c #c5c5c8",
".m c #c5c5cc",
".j c #c7c7c6",
".n c #c7c7d1",
".S c #c9d3f0",
".o c #cacad6",
".i c #cbcbca",
".h c #d0d0ce",
".g c #d4d4d3",
".f c #d8d8d8",
".e c #dbdbdb",
".N c #dfe5f6",
"#d c #e7e7e7",
".H c #e9eefd",
"#. c #ebebeb",
"#c c #eeeeee",
".5 c #efefef",
".9 c #f1f1f1",
".0 c #f3f3f3",
".I c #f4f6fd",
".Z c #f6f6f6",
".V c #f7f7f7",
".U c #f9f9f9",
".Q c #fafafa",
".P c #fcfcfc",
".L c #fdfdfd",
".K c #fefefe",
".G c #ffffff",
"Qt.#.a.a.a.a.a.a.a.a.a.a.a.#Qt.b",
".c.d.e.f.g.h.i.j.k.l.m.n.o.p.c.b",
".q.r.s.t.u.v.w.x.y.z.A.B.C.D.E.b",
".F.G.G.G.G.G.H.I.H.G.G.G.G.G.F.b",
".J.K.L.L.L.L.M.N.M.L.L.L.L.K.J.b",
".O.P.Q.Q.Q.Q.R.S.R.Q.Q.Q.Q.P.O.b",
".T.U.V.V.V.V.W.X.W.V.V.V.V.U.T.b",
".Y.Z.0.0.1.2.2.3.2.2.1.0.0.Z.Y.b",
".4.0.5.5.6.7.3.3.3.7.6.5.5.0.4.b",
".8.9#.#.#.###a.3#a###.#.#..9.8.b",
"#b#c#d#d#d#d#e#f#e#d#d#d#d#c#b.b",
"#g#g#g#g#g#g#g#g#g#g#g#g#g#g#g.b",
"#h#i#j#j#j#j#j#j#j#j#j#j#j#i#h.b",
"#k#l#m#m#m#m#m#m#m#m#m#m#m#l#k.b",
"#n#o#o#o#o#o#o#o#o#o#o#o#o#o#n.b",
"#p#q#r#r#r#r#r#r#r#r#r#r#r#q#p.b"};
