/* XPM */
static const char *edit_find_xpm[] = {
/* columns rows colors chars-per-pixel */
"16 16 92 1",
"+ c #6E7386",
"R c #372F2C",
"M c #363169",
"3 c #6E7387",
"( c #372F2D",
"^ c #A09EA1",
"u c #FFFFFB",
"s c #6E7085",
"F c #343468",
"6 c #FFFFFF",
"} c #35322D",
"l c #34346A",
"y c #FDFFF4",
"% c #FDFFFA",
": c #FDFFFC",
"4 c #FDFFFE",
"# c #FDFCF8",
"& c #32346F",
"J c #E2EEFA",
"m c #E2EEFC",
"' c #DCCA4E",
"v c #E7EFFC",
"= c #6F748A",
"q c #353267",
"X c #6D7487",
"V c #E5EFFB",
"{ c #9F9F9F",
"D c #9F9FA1",
"Z c #333565",
"T c #333568",
"0 c #FEFDFB",
"O c #9F9CA3",
"] c #7E4A00",
"i c #E3EFFB",
"o c #6B7187",
"9 c #FCFDF8",
"z c #A0A0A2",
"` c #372E2F",
"5 c #FFFEFC",
"G c #E4F0FE",
"h c #FFFBFC",
", c #FDFEF9",
"c c #FDFEFF",
"K c #32336B",
"j c #E2F0FB",
"e c #FDFBFC",
"C c #E7F1FA",
"Q c #7D4802",
"A c #7B4B00",
"P c #CC9806",
"k c #E5EEFD",
"d c #FEFFF9",
"f c #FEFFFA",
"2 c #9F9EA3",
"> c #FEFFFD",
"g c #FEFCFD",
"/ c #9DA1A4",
"t c #FEFCFF",
"n c #E3EEFF",
"! c #9D9EA2",
"N c #A0A29F",
"H c #E6EFFF",
"[ c #A09FA4",
"| c #A09FA7",
"8 c #FFFDFE",
"a c #9EA2A5",
"< c #FFFDFF",
". c #6C7487",
"Y c #9E9FA3",
"  c None",
"x c #323264",
"$ c #FDFDFB",
"@ c #FDFDFD",
"* c #A1A3A2",
"L c #3D445E",
"r c #FBFDF8",
"1 c #303262",
"I c #7B4A00",
"b c #E0ECF8",
"w c #6D7588",
"~ c #9FA0A2",
") c #DAC84A",
"U c #9FA0A4",
"S c #9FA0A5",
"E c #DAC84C",
"B c #FEFEFC",
"p c #333367",
"; c #FEFEFE",
"7 c #FEFEFF",
"W c #CF9807",
"_ c #7E4800",
"- c #FCFEF9",
/* pixels */
"                ",
"    .X.o        ",
"  O+@#$%&*      ",
"  =-;:>,<12     ",
" 345678904q     ",
" wert$5yuipa    ",
" sd7fgh6jklz    ",
" xgc67vbnmMN    ",
"  l7BmmVCZAS    ",
"  DFGHJJKLPIU   ",
"   YqppTDREWQ2  ",
"     !~z^/()P_O ",
"          /`'][ ",
"           {}}D ",
"            2{| ",
"                "
};
