/* XPM */
static const char *file_save_xpm[] = {
/* columns rows colors chars-per-pixel */
"16 16 169 2",
"Y  c #FCFEFB",
"^  c #4E50B4",
"a. c #424BA8",
"5. c #534EA2",
"u  c #B6B4B5",
"*  c #4448B4",
"m. c #404EA6",
"}  c #404B9D",
"#. c #5363F7",
",  c #E1EAF3",
"Z  c #7F9DFF",
"t  c #454C9C",
"v. c #B4B7BC",
"J  c #B9B8B6",
"G. c #00447C",
"S  c #E1E7F3",
"0. c #373FEA",
";  c #E1E7F5",
"f  c #FFFFFD",
"k  c #B9B8BE",
"9  c #FFFFFF",
"=. c #B9B8C0",
"%. c #5163F3",
"W. c #D7D0C8",
"&. c #5163F5",
"!  c #00417D",
"5  c #00417E",
"L  c #708BFE",
"K  c #004181",
"N. c #FFFCFF",
"@  c #004183",
"h. c #004185",
"+. c #5160F7",
"T. c #B7B8BC",
"v  c #FDFFFC",
"T  c #FDFFFE",
"n. c #1E22E3",
"@. c #4F63F6",
"$. c #4F63F8",
"e  c #FDFCFF",
"-  c #E2EBF2",
"x  c #505BB5",
"q  c #FBFFFF",
"-. c #033F7E",
"L. c #BAB9BE",
"<. c #4650B2",
"e. c #E2E5F6",
"&  c #AAD5FF",
"A  c #4E5BB7",
"S. c #B8B9BB",
"E. c #B8B9BD",
"k. c #292EEA",
"H. c #B8B9BE",
"D. c #8885A4",
">  c #E5E9F4",
"s. c #363DED",
"8. c #434FF1",
"M. c #DEE8F1",
"]  c #444AAC",
"=  c #E3ECF5",
"#  c #04407F",
"7  c #A3CBFF",
")  c #5544A2",
"1  c #E1E9F4",
"F  c #4858A6",
"h  c #454EA9",
"t. c #E6EAF6",
",. c #4745A6",
"g  c #FFFEFC",
"6  c #B9B7BC",
"4  c #A9D6FD",
"U  c #FFFEFD",
"b  c #FFFEFF",
"E  c #4351A9",
"o. c #5162F6",
":  c #DFE9F2",
"o  c #00407D",
"b. c #00407E",
"X. c #5162F8",
"B  c #004080",
"R. c #B7B7B5",
"g. c #B7B7B7",
" . c #B7B7B9",
"`  c #484FA7",
":. c #4250EE",
"m  c #FDFEFF",
"i. c #F3F6FF",
">. c #4C40A6",
"O  c #03417E",
"3  c #4345AC",
"J. c #BAB8BD",
"{  c #524EAD",
"N  c #8BAFFD",
"O. c #5263F7",
".  c #01417E",
"+  c #01417F",
"I. c #B3B7BA",
"i  c #014181",
"p  c #98BEFD",
"9. c #B8B8B8",
"B. c #FEFFFA",
"2. c #303CA0",
"w  c #FEFFFF",
"1. c #554FA5",
"A. c #1F22E3",
"0  c #FEFCFD",
"p. c #F2F7FA",
"u. c #F7F8FC",
"f. c #024280",
"l  c #024282",
"7. c #3F51EF",
"*. c #5361F5",
"c  c #E1E8F2",
"K. c #B9B9B9",
"C. c #5960B1",
"(  c #3E52AB",
";. c #4452F0",
"   c #00427E",
"G  c #7D9EFF",
"X  c #00427F",
"n  c #FFFDFE",
"Z. c #2020E0",
"R  c #FFFAFA",
"M  c #3E49A3",
"d. c #3540EA",
"w. c #4F4FA9",
"I  c #E4E9EF",
"$  c None",
"s  c #DFE5F1",
"4. c #434DAC",
"Q  c #B7B6BB",
"D  c #FDFDFB",
"|  c #6177FE",
"2  c #E2E9F1",
"Y. c #B5B6B8",
"x. c #2B2FE6",
"<  c #E2E9F3",
"C  c #03407F",
"P. c #BABABC",
"q. c #333DEA",
"%  c #034081",
"_  c #4347B3",
"'  c #414DB3",
"z. c #3D539F",
"3. c #414DB9",
"H  c #014380",
"[  c #4147A7",
"j  c #98C0FD",
"c. c #292FE5",
"l. c #5444A7",
"y. c #E0E9F2",
".. c #5262F6",
"z  c #8BAEFF",
"U. c #B8BAB9",
"j. c #292FE7",
"~  c #6478FF",
"y  c #A0CBFE",
"r. c #E0E6F2",
"8  c #4E509B",
"r  c #FEFEFC",
"V  c #B8B7BD",
"d  c #FEFEFE",
"V. c #FEFEFF",
"P  c #4E53B1",
"W  c #6F8AFF",
"6. c #444BB5",
"/  c #4448AB",
"a  c #5354B1",
"F. c #044180",
/* pixels */
"  . X o X X .   O . + X @   # $ ",
"% & * = - ; : > , < 1 2 3 4 5 6 ",
"  7 8 = 9 0 q w e 9 9 r t y   u ",
"i p a s d r f w 9 9 g r h j X k ",
"l z x c v 9 b g 9 n m f M N B V ",
"C Z A S f w v D n f m r F G H J ",
"K L P I f U Y b T 9 R f E W . Q ",
"! ~ ^ / ( ) _ ` ' ] [ { } | 5  .",
". ..X.o.O.+.@.#.$.@...%.&.*.X =.",
"-.;.:.>.,.<.1.2.3.4.5.6.7.8.X 9.",
"+ 0.q.w.e.r.t.y.u.i.p.a.s.d.f.g.",
"h.j.k.l.S f v f v 9 r z.x.c.X v.",
"b.n.n.m.M.d N.B.V.n 9 C.Z.A.+ S.",
"D.  F.X . K G.B   o b.+ X B X Q ",
"$ H. .J.K.6 L.P.g.I.U.Y.T.R.E.W.",
"$ $ $ $ $ $ $ $ $ $ $ $ $ $ $ $ "
};
