/* XPM */
static char * file_edit_xpm[] = {
"16 16 25 1",
" 	c None",
".	c #5C6272",
"+	c #996903",
"@	c #6766CC",
"#	c #FFFFFF",
"$	c #FEDE7B",
"%	c #0099FF",
"&	c #CC9804",
"*	c #7D4900",
"=	c #362F2D",
"-	c #A0A1A6",
";	c #030353",
">	c #B6B4B3",
",	c #FBFBFC",
"'	c #FEFEFE",
")	c #F0D5C5",
"!	c #F5F6F9",
"~	c #EDF0F4",
"{	c #E5EAF0",
"]	c #DDE3EB",
"^	c #D4DBE5",
"/	c #CCD5E1",
"(	c #C4CFDC",
"_	c #BECAD9",
":	c #BAC6D6",
"                ",
"  ..........+@@ ",
"  .########+$%@ ",
"  .#######+$&*= ",
"  .######+$&*=- ",
"  .#####+$&*=;- ",
"  .####+$&*=#;- ",
"  .###+$&*=##;- ",
"  .##>$+*=##,;- ",
"  .##=')=#,!~;- ",
"  .##==>,!~{];- ",
"  .###,!~{]^/;- ",
"  .#,!~{]^/(_;- ",
"  .!~{]^/(_::;- ",
"  .;;;;;;;;;;;- ",
"   ------------ "};
