/* XPM */
static char *dummy[]={
"16 16 113 2",
".b c None",
"#S c #000000",
"#T c #000000",
"#U c #000000",
"Qt c #555555",
".# c #555555",
".c c #535353",
".B c #030303",
".a c #555555",
".F c #555555",
"#R c #0b0b0b",
".L c #525252",
".T c #4f4f4f",
".0 c #4b4b4b",
"## c #474747",
"#h c #434343",
"#r c #3e3e3e",
"#y c #393939",
"#E c #343434",
"#K c #2f2f2f",
"#N c #1f1f1f",
"#Q c #0d0d0d",
"#O c #314aae",
".p c #b8b8c4",
".d c #c6c6c6",
"#i c #2244ad",
"#a c #2345ab",
"#s c #2547b5",
".1 c #2a4cb0",
"#l c #2b4bb0",
"#z c #2b4dc1",
".5 c #3353b3",
"#F c #3355cf",
".U c #3557ba",
"#L c #3b5ddd",
"#P c #4163e9",
".M c #4264c8",
".G c #5072d7",
"#D c #5972c9",
"#m c #5a72be",
".C c #5c7ee3",
".6 c #627ac3",
".q c #6587ed",
".R c #7089d4",
"#n c #97a5d1",
".A c #9c9c9c",
".z c #9e9e9e",
".7 c #9fadd7",
".y c #a1a1a1",
"#w c #a3afd5",
"#C c #a3afd7",
".x c #a4a4a4",
"#k c #a5b1d5",
".w c #a6a6a6",
".v c #aaaaaa",
".u c #acacac",
".3 c #adb9dc",
".t c #b0b0b0",
"#H c #b0bee7",
".s c #b2b2b2",
"#A c #b2c0e8",
".Y c #b3bfe1",
"#u c #b4c1ea",
".r c #b5b5b5",
"#G c #b5c2eb",
"#M c #b6c3ec",
".4 c #b6c4ed",
"#t c #b8c5ee",
".Q c #b9c5e8",
"#c c #b9c6ed",
"#b c #b9c6ef",
"#j c #b9c7f0",
".2 c #bbc9f1",
".W c #bdcbf3",
".V c #beccf5",
".O c #bfccf5",
".N c #c0cdf6",
".I c #c1cef7",
".H c #c1cff8",
".D c #c2cff8",
".k c #c5c5c6",
".l c #c5c5c8",
".m c #c5c5cc",
"#d c #c6d0ee",
".j c #c7c7c6",
".n c #c7c7d1",
".o c #cacad6",
".i c #cbcbca",
"#o c #cfd3e3",
".h c #d0d0ce",
".g c #d4d4d3",
".8 c #d7dbea",
".f c #d8d8d8",
"#e c #d8deef",
".e c #dbdbdb",
"#I c #e1e1e1",
"#B c #e4e4e4",
"#v c #e7e7e7",
"#f c #e7e9ef",
"#J c #e9e9e9",
"#p c #ebebeb",
"#x c #eeeeee",
"#g c #efefef",
"#q c #f1f1f1",
".9 c #f3f3f3",
"#. c #f6f6f6",
".X c #f7f7f7",
".Z c #f9f9f9",
".P c #fafafa",
".S c #fcfcfc",
".J c #fdfdfd",
".K c #fefefe",
".E c #ffffff",
"Qt.#.a.a.a.a.a.a.a.a.a.a.a.#Qt.b",
".c.d.e.f.g.h.i.j.k.l.m.n.o.p.c.b",
".q.q.q.q.r.s.t.u.v.w.x.y.z.A.B.b",
".C.D.D.C.E.E.E.E.E.E.E.E.E.E.F.b",
".G.H.I.G.J.J.J.J.J.J.J.J.J.K.L.b",
".M.N.O.M.P.P.Q.R.P.P.P.P.P.S.T.b",
".U.V.W.U.X.Y.U.U.X.X.X.X.X.Z.0.b",
".1.W.2.1.3.1.4.1.5.6.7.8.9#.##.b",
"#a.2#b#a#a.4.4.4#c#d#e#f#g.9#h.b",
"#i#j.4#i#k#i.4#i#l#m#n#o#p#q#r.b",
"#s#t#u#s#v#w#s#s#v#v#v#v#v#x#y.b",
"#z.4#A#z#B#B#C#D#B#B#B#B#B#p#E.b",
"#F#G#H#F#I#I#I#I#I#I#I#I#I#J#K.b",
"#L#M#u#L#v#v#v#v#v#v#v#v#v#p#N.b",
"#O#P#P#P#Q#Q#Q#Q#Q#Q#Q#Q#Q#Q#R.b",
"#S#T#U#U#U#U#U#U#U#U#U#U#U#T#S.b"};
